#!OML:ASF H:\MichaelJackson\Top Level 1\Subject 1\Session 1\male.ASF
:FULLY-SPECIFIED
:DEGREES
1225
root 0.758705 15.6971 35.2535 8.13463 0.51198 1.29058
lowerback -2.60575 0.741705 -0.539591
upperback -1.97985 0.993006 -4.10735
thorax -0.507882 0.479363 -3.90236
lowerneck -6.55044 -1.78722 4.1452
upperneck 1.52158 -2.8912 5.12716
head 1.60331 -1.29343 0.810929
rclavicle -2.21148e-014 1.59028e-014
rhumerus -1.14616 -21.3717 -2.33622
rradius 26.5993
rwrist -6.17889
rhand -36.6366 -47.8675
rfingers 7.12502
rthumb -9.72408 -437.623
lclavicle -2.21148e-014 1.59028e-014
lhumerus -54.898 -44.1074 117.534
lradius 51.2742
lwrist 22.5029
lhand 38.4486 25.6272
lfingers 7.12502
lthumb 61.0971 38.2018
rfemur -18.2582 -3.64408 -7.66225
rtibia 28.211
rfoot -6.8932 -10.3751
rtoes -40.6933
lfemur -5.29842 -22.8303 4.84133
ltibia 13.654
lfoot -23.4818 11.1001
ltoes -31.0757
1226
root 0.759379 15.697 35.2537 8.12484 0.512595 1.28968
lowerback -2.62583 0.738843 -0.53607
upperback -1.98058 0.98968 -4.10493
thorax -0.49758 0.477737 -3.90165
lowerneck -6.53856 -1.78797 4.14879
upperneck 1.52427 -2.89169 5.12115
head 1.60189 -1.29388 0.808507
rclavicle -2.23633e-015 1.59028e-015
rhumerus -1.17614 -21.2924 -2.30601
rradius 26.6265
rwrist -6.22809
rhand -36.6519 -47.7998
rfingers 7.12502
rthumb -9.73879 -437.555
lclavicle -2.23633e-015 1.59028e-015
lhumerus -54.8887 -44.103 117.532
lradius 51.2563
lwrist 22.4989
lhand 38.4812 25.6311
lfingers 7.12502
lthumb 61.1247 38.1739
rfemur -18.2449 -3.6367 -7.66591
rtibia 28.2081
rfoot -6.89556 -10.3746
rtoes -40.6835
lfemur -5.28618 -22.8456 4.83592
ltibia 13.654
lfoot -23.4859 11.1109
ltoes -31.0704
1227
root 0.76012 15.6968 35.2538 8.11572 0.512652 1.28598
lowerback -2.6452 0.736498 -0.530314
upperback -1.98115 0.986987 -4.10124
thorax -0.487455 0.476415 -3.90087
lowerneck -6.53363 -1.78985 4.15361
upperneck 1.53172 -2.89439 5.11191
head 1.60318 -1.29524 0.804723
rclavicle 1.11319e-014 2.38542e-015
rhumerus -1.20382 -21.23 -2.27457
rradius 26.6457
rwrist -6.24909
rhand -36.6532 -47.7183
rfingers 7.12502
rthumb -9.74001 -437.473
lclavicle 1.11319e-014 2.38542e-015
lhumerus -54.8809 -44.0999 117.531
lradius 51.2423
lwrist 22.4961
lhand 38.5095 25.6372
lfingers 7.12502
lthumb 61.1485 38.1525
rfemur -18.2332 -3.63125 -7.66611
rtibia 28.2066
rfoot -6.89931 -10.3731
rtoes -40.6722
lfemur -5.27451 -22.8485 4.83434
ltibia 13.6536
lfoot -23.4947 11.1089
ltoes -31.0621
1228
root 0.760888 15.6965 35.2541 8.10667 0.510561 1.28191
lowerback -2.66287 0.735145 -0.524982
upperback -1.98073 0.98561 -4.09687
thorax -0.477196 0.475768 -3.89912
lowerneck -6.53602 -1.79303 4.15828
upperneck 1.54193 -2.89938 5.10054
head 1.60664 -1.29758 0.800147
rclavicle -1.59028e-015 3.49861e-014
rhumerus -1.22106 -21.2223 -2.24984
rradius 26.6488
rwrist -6.20347
rhand -36.6316 -47.6344
rfingers 7.12502
rthumb -9.71923 -437.39
lclavicle -1.59028e-015 3.49861e-014
lhumerus -54.8743 -44.1008 117.532
lradius 51.2321
lwrist 22.4974
lhand 38.5267 25.6364
lfingers 7.12502
lthumb 61.163 38.135
rfemur -18.224 -3.62678 -7.66597
rtibia 28.2075
rfoot -6.90565 -10.3687
rtoes -40.6588
lfemur -5.26286 -22.8336 4.83375
ltibia 13.6532
lfoot -23.5097 11.0875
ltoes -31.05
1229
root 0.761662 15.6962 35.2543 8.09873 0.507521 1.27688
lowerback -2.6831 0.733797 -0.521045
upperback -1.97758 0.984443 -4.09095
thorax -0.46274 0.475299 -3.89491
lowerneck -6.54486 -1.79585 4.16119
upperneck 1.55164 -2.90412 5.08918
head 1.61111 -1.29973 0.795824
rclavicle 8.89561e-015 1.59028e-014
rhumerus -1.23251 -21.2509 -2.22708
rradius 26.642
rwrist -6.11864
rhand -36.5906 -47.5435
rfingers 7.12502
rthumb -9.67965 -437.301
lclavicle 8.89561e-015 1.59028e-014
lhumerus -54.866 -44.1054 117.532
lradius 51.2269
lwrist 22.5047
lhand 38.534 25.6374
lfingers 7.12502
lthumb 61.1692 38.1288
rfemur -18.2184 -3.62498 -7.66447
rtibia 28.2115
rfoot -6.91102 -10.3624
rtoes -40.6512
lfemur -5.25287 -22.7973 4.83578
ltibia 13.6526
lfoot -23.5319 11.0447
ltoes -31.0369
1230
root 0.762404 15.6957 35.2546 8.09196 0.503988 1.27509
lowerback -2.7027 0.732676 -0.520425
upperback -1.9735 0.983659 -4.08662
thorax -0.447672 0.475056 -3.89047
lowerneck -6.5612 -1.79939 4.16222
upperneck 1.56349 -2.9104 5.08127
head 1.61772 -1.30239 0.792787
rclavicle 4.32357e-015 1.82882e-014
rhumerus -1.24204 -21.3066 -2.20811
rradius 26.6293
rwrist -6.01743
rhand -36.5452 -47.4795
rfingers 7.12502
rthumb -9.63586 -437.239
lclavicle 4.32357e-015 1.82882e-014
lhumerus -54.8604 -44.1144 117.533
lradius 51.2263
lwrist 22.5189
lhand 38.5313 25.6362
lfingers 7.12502
lthumb 61.1669 38.1302
rfemur -18.2158 -3.62706 -7.66647
rtibia 28.219
rfoot -6.91931 -10.3532
rtoes -40.6424
lfemur -5.24562 -22.7393 4.83645
ltibia 13.6521
lfoot -23.5624 10.9767
ltoes -31.0187
1231
root 0.763058 15.6951 35.2549 8.0848 0.498217 1.27621
lowerback -2.72242 0.731537 -0.525755
upperback -1.96708 0.983059 -4.08199
thorax -0.430229 0.474995 -3.88232
lowerneck -6.57673 -1.80121 4.16815
upperneck 1.56805 -2.91413 5.06911
head 1.62163 -1.3041 0.78769
rclavicle 2.03754e-014 -1.43125e-014
rhumerus -1.24955 -21.3668 -2.1896
rradius 26.618
rwrist -5.92912
rhand -36.5093 -47.4487
rfingers 7.12502
rthumb -9.60122 -437.21
lclavicle 2.03754e-014 -1.43125e-014
lhumerus -54.8525 -44.1246 117.531
lradius 51.2293
lwrist 22.5379
lhand 38.5243 25.6365
lfingers 7.12502
lthumb 61.161 38.1373
rfemur -18.2158 -3.62821 -7.672
rtibia 28.2298
rfoot -6.92783 -10.3428
rtoes -40.6352
lfemur -5.23802 -22.6635 4.83471
ltibia 13.6515
lfoot -23.5984 10.889
ltoes -30.9951
1232
root 0.763665 15.6943 35.2552 8.0769 0.490926 1.28133
lowerback -2.74124 0.730646 -0.534988
upperback -1.95888 0.982911 -4.07954
thorax -0.411467 0.475206 -3.87421
lowerneck -6.59358 -1.80396 4.16976
upperneck 1.56707 -2.91877 5.06377
head 1.6242 -1.3063 0.785439
rclavicle -1.81888e-014 -8.74653e-015
rhumerus -1.25857 -21.4271 -2.173
rradius 26.6087
rwrist -5.85294
rhand -36.4877 -47.451
rfingers 7.12502
rthumb -9.58036 -437.213
lclavicle -1.81888e-014 -8.74653e-015
lhumerus -54.8455 -44.1375 117.528
lradius 51.236
lwrist 22.5605
lhand 38.5141 25.6365
lfingers 7.12502
lthumb 61.1524 38.1473
rfemur -18.2168 -3.63059 -7.68231
rtibia 28.2432
rfoot -6.93587 -10.3301
rtoes -40.6336
lfemur -5.2293 -22.5732 4.82883
ltibia 13.6504
lfoot -23.6398 10.7856
ltoes -30.9698
1233
root 0.764178 15.6935 35.2556 8.06811 0.482434 1.28748
lowerback -2.75756 0.729656 -0.546029
upperback -1.95012 0.982619 -4.07783
thorax -0.393554 0.475353 -3.86589
lowerneck -6.6055 -1.80491 4.17593
upperneck 1.55711 -2.92051 5.05793
head 1.62286 -1.30742 0.782421
rclavicle -1.68967e-015 9.54166e-015
rhumerus -1.27026 -21.4731 -2.15633
rradius 26.6037
rwrist -5.79821
rhand -36.479 -47.4745
rfingers 7.12502
rthumb -9.57196 -437.237
lclavicle -1.68967e-015 9.54166e-015
lhumerus -54.8388 -44.1486 117.523
lradius 51.2453
lwrist 22.5847
lhand 38.5034 25.6407
lfingers 7.12502
lthumb 61.1434 38.1618
rfemur -18.2182 -3.62928 -7.6941
rtibia 28.2582
rfoot -6.94222 -10.3194
rtoes -40.6374
lfemur -5.21887 -22.4759 4.82197
ltibia 13.6481
lfoot -23.6827 10.6747
ltoes -30.9457
1234
root 0.764661 15.6927 35.256 8.05714 0.472963 1.29471
lowerback -2.77072 0.727812 -0.556998
upperback -1.93975 0.981156 -4.07716
thorax -0.375808 0.474914 -3.85874
lowerneck -6.61435 -1.80553 4.17534
upperneck 1.5364 -2.92069 5.05959
head 1.61774 -1.30805 0.783006
rclavicle 9.49197e-015 -1.98785e-014
rhumerus -1.28081 -21.4961 -2.14218
rradius 26.6035
rwrist -5.7759
rhand -36.4982 -47.5127
rfingers 7.12502
rthumb -9.59054 -437.274
lclavicle 9.49197e-015 -1.98785e-014
lhumerus -54.8271 -44.1559 117.511
lradius 51.2554
lwrist 22.6077
lhand 38.4972 25.6471
lfingers 7.12502
lthumb 61.1382 38.1744
rfemur -18.2176 -3.62269 -7.70793
rtibia 28.2736
rfoot -6.94908 -10.3113
rtoes -40.641
lfemur -5.20491 -22.38 4.81305
ltibia 13.6448
lfoot -23.7247 10.5626
ltoes -30.9168
1235
root 0.765064 15.6918 35.2565 8.04453 0.461714 1.30157
lowerback -2.78248 0.726015 -0.567221
upperback -1.92914 0.979712 -4.07777
thorax -0.358569 0.474467 -3.85336
lowerneck -6.61137 -1.80623 4.17347
upperneck 1.50043 -2.91937 5.06517
head 1.60566 -1.30854 0.785226
rclavicle -1.47101e-014 3.4191e-014
rhumerus -1.29026 -21.5144 -2.1325
rradius 26.6006
rwrist -5.75078
rhand -36.5272 -47.5329
rfingers 7.12502
rthumb -9.61847 -437.293
lclavicle -1.47101e-014 3.4191e-014
lhumerus -54.8147 -44.1586 117.494
lradius 51.2654
lwrist 22.6273
lhand 38.4943 25.649
lfingers 7.12502
lthumb 61.1357 38.1791
rfemur -18.2153 -3.61036 -7.72177
rtibia 28.2882
rfoot -6.95383 -10.3061
rtoes -40.6523
lfemur -5.18634 -22.2914 4.80308
ltibia 13.64
lfoot -23.7639 10.4599
ltoes -30.89
1236
root 0.765468 15.691 35.2572 8.03084 0.448825 1.30642
lowerback -2.79359 0.723541 -0.57392
upperback -1.91778 0.977302 -4.0788
thorax -0.340915 0.473508 -3.85045
lowerneck -6.60311 -1.8055 4.17378
upperneck 1.45445 -2.91537 5.07068
head 1.58934 -1.30811 0.787216
rclavicle 6.26172e-015 1.19271e-014
rhumerus -1.29217 -21.54 -2.1321
rradius 26.5932
rwrist -5.70818
rhand -36.5575 -47.5258
rfingers 7.12502
rthumb -9.64773 -437.285
lclavicle 6.26172e-015 1.19271e-014
lhumerus -54.7967 -44.1564 117.471
lradius 51.2738
lwrist 22.6447
lhand 38.497 25.6566
lfingers 7.12502
lthumb 61.1379 38.1841
rfemur -18.2111 -3.59414 -7.73378
rtibia 28.3009
rfoot -6.95871 -10.3016
rtoes -40.6617
lfemur -5.16365 -22.2157 4.79334
ltibia 13.6345
lfoot -23.7979 10.3719
ltoes -30.8674
